<?xml version="1.0" standalone="no"?>
<!DOCTYPE svg PUBLIC "-//W3C//DTD SVG 20010904//EN"
 "http://www.w3.org/TR/2001/REC-SVG-20010904/DTD/svg10.dtd">
<svg version="1.0" xmlns="http://www.w3.org/2000/svg"
 width="200.000000pt" height="200.000000pt" viewBox="0 0 200.000000 200.000000"
 preserveAspectRatio="xMidYMid meet">
<metadata>
Created by potrace 1.11, written by Peter Selinger 2001-2013
</metadata>
<g transform="translate(0.000000,200.000000) scale(0.100000,-0.100000)"
fill="#000000" stroke="none">
<path d="M892 1978 c-6 -6 -12 -17 -12 -24 0 -7 -24 -13 -64 -16 -93 -6 -106
-20 -106 -120 l0 -78 290 0 290 0 0 69 c0 38 -3 77 -6 86 -10 25 -59 45 -111
45 -40 0 -50 4 -58 23 -9 20 -17 22 -110 25 -70 2 -104 -1 -113 -10z"/>
<path d="M299 1841 l-29 -29 0 -875 c0 -869 0 -874 21 -901 l20 -26 689 0 689
0 20 26 c21 27 21 32 21 901 l0 875 -29 29 -29 29 -146 0 -146 0 0 -45 0 -45
130 0 130 0 0 -845 0 -845 -640 0 -640 0 0 845 0 845 130 0 130 0 0 45 0 45
-146 0 -146 0 -29 -29z"/>
<path d="M880 1457 c-63 -33 -83 -75 -76 -160 4 -54 2 -69 -10 -74 -27 -10 -4
-123 26 -123 6 0 19 -20 31 -45 44 -94 129 -127 216 -84 39 20 53 34 73 76 14
29 31 53 37 53 34 0 58 115 27 127 -13 5 -15 16 -10 67 6 51 3 66 -14 94 -11
18 -28 36 -38 39 -9 4 -32 17 -51 30 -48 32 -150 32 -211 0z m256 -169 l36
-21 -5 -64 c-3 -44 -15 -85 -37 -130 -28 -56 -39 -68 -77 -85 -49 -22 -91 -18
-134 13 -34 24 -79 126 -86 194 l-6 55 45 0 c65 0 147 17 188 39 19 11 36 20
37 20 1 1 18 -9 39 -21z"/>
<path d="M727 855 c-70 -18 -134 -38 -142 -45 -24 -20 -43 -104 -56 -253 -11
-123 -10 -140 4 -154 14 -14 73 -16 464 -21 414 -4 450 -3 466 12 20 20 21 44
6 192 -13 137 -33 210 -62 228 -21 13 -277 80 -282 74 -1 -2 -17 -52 -35 -111
-19 -61 -37 -102 -40 -95 -12 22 -19 122 -11 143 13 32 2 45 -39 45 -42 0 -52
-12 -38 -48 7 -21 -4 -138 -15 -148 -2 -3 -19 45 -38 106 -19 60 -38 110 -44
109 -5 0 -67 -16 -138 -34z"/>
</g>
</svg>
